<svg width="122" height="82" viewBox="0 0 122 82" fill="none" xmlns="http://www.w3.org/2000/svg">
<path d="M121.864 30.184L118.637 25.6449C118.492 25.4448 118.255 25.299 117.977 25.2395C117.699 25.1799 117.402 25.2113 117.153 25.3269L110.25 28.5723L99.5898 4.86803C99.0269 3.45361 97.9204 2.21983 96.4301 1.34483C94.9397 0.469825 93.1426 -0.00111471 91.2982 1.98133e-06H32.3044C27.58 1.98133e-06 23.3866 2.45595 21.9298 6.08504L11.773 28.5832L4.85654 25.3379C4.60718 25.2223 4.31115 25.1908 4.0331 25.2504C3.75505 25.31 3.51756 25.4557 3.3725 25.6558L0.145747 30.184C-0.153783 30.6006 0.023212 31.1269 0.540582 31.3681L8.76405 35.2274L6.78987 39.6131C6.62649 39.9639 6.5448 40.3367 6.5448 40.7095V78.8862C6.5448 80.6076 8.15137 82 10.1255 82H19.3293C21.0039 82 22.4607 80.9803 22.8147 79.555L23.8631 75.4216H98.1466L99.1949 79.555C99.5625 80.9803 101.006 82 102.68 82H111.884C113.858 82 115.465 80.6076 115.465 78.8862V40.7095C115.465 40.3367 115.383 39.9639 115.22 39.6131L113.246 35.2274L121.455 31.3681C121.703 31.2532 121.884 31.0647 121.96 30.8433C122.037 30.6218 122.002 30.3851 121.864 30.184ZM27.2396 52.9453C24.2307 52.9453 21.7936 50.9828 21.7936 48.5597C21.7936 46.1367 24.2307 44.1741 27.2396 44.1741C30.2485 44.1741 32.6856 46.1367 32.6856 48.5597C32.6856 50.9828 30.2485 52.9453 27.2396 52.9453ZM80.0658 61.1683C80.0658 61.6508 79.5757 62.0455 78.9766 62.0455H43.033C42.434 62.0455 41.9438 61.6508 41.9438 61.1683V51.9586C41.9438 51.4761 42.434 51.0814 43.033 51.0814H48.479C49.0781 51.0814 49.5682 51.4761 49.5682 51.9586V55.9056H72.4414V51.9586C72.4414 51.4761 72.9316 51.0814 73.5306 51.0814H78.9766C79.5757 51.0814 80.0658 51.4761 80.0658 51.9586V61.1683ZM94.7701 52.9453C91.7611 52.9453 89.3241 50.9828 89.3241 48.5597C89.3241 46.1367 91.7611 44.1741 94.7701 44.1741C97.779 44.1741 100.216 46.1367 100.216 48.5597C100.216 50.9828 97.779 52.9453 94.7701 52.9453ZM21.249 30.6883L31.1471 8.77123L31.2152 8.62869L31.2697 8.48616C31.4194 8.12435 31.8279 7.88314 32.3044 7.88314H90.5222L100.788 30.6883H21.249Z" fill="url(#paint0_linear)"/>
<defs>
<linearGradient id="paint0_linear" x1="61" y1="0" x2="61" y2="82" gradientUnits="userSpaceOnUse">
<stop stop-color="#B92C7B"/>
<stop offset="1" stop-color="#64308F"/>
</linearGradient>
</defs>
</svg>
