<svg width="530" height="132" viewBox="0 0 530 132" fill="none" xmlns="http://www.w3.org/2000/svg">
<path d="M303.625 81H284.5V54.75C284.5 52.6781 282.99 51 281.125 51H260.875C259.01 51 257.5 52.6781 257.5 54.75V66H248.5V53.5C248.5 52.1187 247.493 51 246.25 51H244C242.757 51 241.75 52.1187 241.75 53.5V66H232.75V53.5C232.75 52.1187 231.743 51 230.5 51H228.25C227.007 51 226 52.1187 226 53.5V66H220.375C218.51 66 217 67.6781 217 69.75V126C217 128.761 219.015 131 221.5 131H302.5C304.985 131 307 128.761 307 126V84.75C307 82.6781 305.488 81 303.625 81ZM235 114.125C235 115.161 234.245 116 233.312 116H227.688C226.755 116 226 115.161 226 114.125V107.875C226 106.839 226.755 106 227.688 106H233.312C234.245 106 235 106.839 235 107.875V114.125ZM235 99.125C235 100.161 234.245 101 233.312 101H227.688C226.755 101 226 100.161 226 99.125V92.875C226 91.8391 226.755 91 227.688 91H233.312C234.245 91 235 91.8391 235 92.875V99.125ZM235 84.125C235 85.1609 234.245 86 233.312 86H227.688C226.755 86 226 85.1609 226 84.125V77.875C226 76.8391 226.755 76 227.688 76H233.312C234.245 76 235 76.8391 235 77.875V84.125ZM253 114.125C253 115.161 252.245 116 251.312 116H245.688C244.755 116 244 115.161 244 114.125V107.875C244 106.839 244.755 106 245.688 106H251.312C252.245 106 253 106.839 253 107.875V114.125ZM253 99.125C253 100.161 252.245 101 251.312 101H245.688C244.755 101 244 100.161 244 99.125V92.875C244 91.8391 244.755 91 245.688 91H251.312C252.245 91 253 91.8391 253 92.875V99.125ZM253 84.125C253 85.1609 252.245 86 251.312 86H245.688C244.755 86 244 85.1609 244 84.125V77.875C244 76.8391 244.755 76 245.688 76H251.312C252.245 76 253 76.8391 253 77.875V84.125ZM275.5 99.125C275.5 100.161 274.745 101 273.812 101H268.188C267.255 101 266.5 100.161 266.5 99.125V92.875C266.5 91.8391 267.255 91 268.188 91H273.812C274.745 91 275.5 91.8391 275.5 92.875V99.125ZM275.5 84.125C275.5 85.1609 274.745 86 273.812 86H268.188C267.255 86 266.5 85.1609 266.5 84.125V77.875C266.5 76.8391 267.255 76 268.188 76H273.812C274.745 76 275.5 76.8391 275.5 77.875V84.125ZM275.5 69.125C275.5 70.1609 274.745 71 273.812 71H268.188C267.255 71 266.5 70.1609 266.5 69.125V62.875C266.5 61.8391 267.255 61 268.188 61H273.812C274.745 61 275.5 61.8391 275.5 62.875V69.125ZM298 114.125C298 115.161 297.245 116 296.312 116H290.688C289.755 116 289 115.161 289 114.125V107.875C289 106.839 289.755 106 290.688 106H296.312C297.245 106 298 106.839 298 107.875V114.125ZM298 99.125C298 100.161 297.245 101 296.312 101H290.688C289.755 101 289 100.161 289 99.125V92.875C289 91.8391 289.755 91 290.688 91H296.312C297.245 91 298 91.8391 298 92.875V99.125Z" fill="white" fill-opacity="0.1"/>
<path d="M128.844 132H4.15625C3.0306 132 2.05648 131.592 1.23389 130.775C0.411296 129.959 0 128.992 0 127.875V37.125C0 36.0078 0.411296 35.041 1.23389 34.2246C2.05648 33.4082 3.0306 33 4.15625 33H33.25V4.125C33.25 3.00781 33.6613 2.04102 34.4839 1.22461C35.3065 0.408203 36.2806 0 37.4062 0H62.3438C63.4694 0 64.4435 0.408203 65.2661 1.22461C66.0887 2.04102 66.5 3.00781 66.5 4.125V41.25H74.8125V28.875C74.8125 27.7578 75.2238 26.791 76.0464 25.9746C76.869 25.1582 77.8431 24.75 78.9688 24.75H83.125C83.125 22.0859 83.9043 19.7012 85.4629 17.5957C87.0215 15.4902 89.0563 14.0078 91.5674 13.1484C91.7406 9.36719 92.2168 6.23047 92.9961 3.73828C93.7754 1.24609 94.6413 0 95.5938 0C96.5462 0 97.4121 1.24609 98.1914 3.73828C98.9707 6.23047 99.4469 9.36719 99.6201 13.1484C102.131 14.0078 104.166 15.4902 105.725 17.5957C107.283 19.7012 108.062 22.0859 108.062 24.75H112.219C113.344 24.75 114.319 25.1582 115.141 25.9746C115.964 26.791 116.375 27.7578 116.375 28.875V66H128.844C129.969 66 130.944 66.4082 131.766 67.2246C132.589 68.041 133 69.0078 133 70.125V127.875C133 128.992 132.589 129.959 131.766 130.775C130.944 131.592 129.969 132 128.844 132ZM16.625 41.25H8.3125V49.5H16.625V41.25ZM16.625 57.75H8.3125V66H16.625V57.75ZM16.625 90.75H8.3125V99H16.625V90.75ZM33.25 41.25H24.9375V49.5H33.25V41.25ZM33.25 74.25H24.9375V82.5H33.25V74.25ZM41.5625 115.5H49.875V107.25H41.5625V115.5ZM41.5625 99H49.875V90.75H41.5625V99ZM49.875 8.25H41.5625V16.5H49.875V8.25ZM58.1875 24.75H49.875V33H58.1875V24.75ZM58.1875 41.25H49.875V49.5H58.1875V41.25ZM58.1875 74.25H49.875V82.5H58.1875V74.25ZM74.8125 49.5H66.5V57.75H74.8125V49.5ZM74.8125 66H66.5V74.25H74.8125V66ZM74.8125 99H66.5V107.25H74.8125V99ZM91.4375 41.25H83.125V49.5H91.4375V41.25ZM91.4375 57.75H83.125V66H91.4375V57.75ZM91.4375 99H83.125V107.25H91.4375V99ZM108.062 49.5H99.75V57.75H108.062V49.5ZM108.062 82.5H99.75V90.75H108.062V82.5ZM108.062 107.25H99.75V115.5H108.062V107.25ZM124.688 74.25H116.375V82.5H124.688V74.25ZM124.688 90.75H116.375V99H124.688V90.75ZM124.688 107.25H116.375V115.5H124.688V107.25Z" fill="white" fill-opacity="0.1"/>
<path d="M435.844 132H311.156C310.031 132 309.056 131.592 308.234 130.775C307.411 129.959 307 128.992 307 127.875V37.125C307 36.0078 307.411 35.041 308.234 34.2246C309.056 33.4082 310.031 33 311.156 33H340.25V4.125C340.25 3.00781 340.661 2.04102 341.484 1.22461C342.306 0.408203 343.281 0 344.406 0H369.344C370.469 0 371.444 0.408203 372.266 1.22461C373.089 2.04102 373.5 3.00781 373.5 4.125V41.25H381.812V28.875C381.812 27.7578 382.224 26.791 383.046 25.9746C383.869 25.1582 384.843 24.75 385.969 24.75H390.125C390.125 22.0859 390.904 19.7012 392.463 17.5957C394.021 15.4902 396.056 14.0078 398.567 13.1484C398.741 9.36719 399.217 6.23047 399.996 3.73828C400.775 1.24609 401.641 0 402.594 0C403.546 0 404.412 1.24609 405.191 3.73828C405.971 6.23047 406.447 9.36719 406.62 13.1484C409.131 14.0078 411.166 15.4902 412.725 17.5957C414.283 19.7012 415.062 22.0859 415.062 24.75H419.219C420.344 24.75 421.319 25.1582 422.141 25.9746C422.964 26.791 423.375 27.7578 423.375 28.875V66H435.844C436.969 66 437.944 66.4082 438.766 67.2246C439.589 68.041 440 69.0078 440 70.125V127.875C440 128.992 439.589 129.959 438.766 130.775C437.944 131.592 436.969 132 435.844 132ZM323.625 41.25H315.312V49.5H323.625V41.25ZM323.625 57.75H315.312V66H323.625V57.75ZM323.625 90.75H315.312V99H323.625V90.75ZM340.25 41.25H331.938V49.5H340.25V41.25ZM340.25 74.25H331.938V82.5H340.25V74.25ZM348.562 115.5H356.875V107.25H348.562V115.5ZM348.562 99H356.875V90.75H348.562V99ZM356.875 8.25H348.562V16.5H356.875V8.25ZM365.188 24.75H356.875V33H365.188V24.75ZM365.188 41.25H356.875V49.5H365.188V41.25ZM365.188 74.25H356.875V82.5H365.188V74.25ZM381.812 49.5H373.5V57.75H381.812V49.5ZM381.812 66H373.5V74.25H381.812V66ZM381.812 99H373.5V107.25H381.812V99ZM398.438 41.25H390.125V49.5H398.438V41.25ZM398.438 57.75H390.125V66H398.438V57.75ZM398.438 99H390.125V107.25H398.438V99ZM415.062 49.5H406.75V57.75H415.062V49.5ZM415.062 82.5H406.75V90.75H415.062V82.5ZM415.062 107.25H406.75V115.5H415.062V107.25ZM431.688 74.25H423.375V82.5H431.688V74.25ZM431.688 90.75H423.375V99H431.688V90.75ZM431.688 107.25H423.375V115.5H431.688V107.25Z" fill="white" fill-opacity="0.1"/>
<path d="M526.625 82H507.5V55.75C507.5 53.6781 505.99 52 504.125 52H483.875C482.01 52 480.5 53.6781 480.5 55.75V67H471.5V54.5C471.5 53.1187 470.493 52 469.25 52H467C465.757 52 464.75 53.1187 464.75 54.5V67H455.75V54.5C455.75 53.1187 454.743 52 453.5 52H451.25C450.007 52 449 53.1187 449 54.5V67H443.375C441.51 67 440 68.6781 440 70.75V127C440 129.761 442.015 132 444.5 132H525.5C527.985 132 530 129.761 530 127V85.75C530 83.6781 528.488 82 526.625 82ZM458 115.125C458 116.161 457.245 117 456.312 117H450.688C449.755 117 449 116.161 449 115.125V108.875C449 107.839 449.755 107 450.688 107H456.312C457.245 107 458 107.839 458 108.875V115.125ZM458 100.125C458 101.161 457.245 102 456.312 102H450.688C449.755 102 449 101.161 449 100.125V93.875C449 92.8391 449.755 92 450.688 92H456.312C457.245 92 458 92.8391 458 93.875V100.125ZM458 85.125C458 86.1609 457.245 87 456.312 87H450.688C449.755 87 449 86.1609 449 85.125V78.875C449 77.8391 449.755 77 450.688 77H456.312C457.245 77 458 77.8391 458 78.875V85.125ZM476 115.125C476 116.161 475.245 117 474.312 117H468.688C467.755 117 467 116.161 467 115.125V108.875C467 107.839 467.755 107 468.688 107H474.312C475.245 107 476 107.839 476 108.875V115.125ZM476 100.125C476 101.161 475.245 102 474.312 102H468.688C467.755 102 467 101.161 467 100.125V93.875C467 92.8391 467.755 92 468.688 92H474.312C475.245 92 476 92.8391 476 93.875V100.125ZM476 85.125C476 86.1609 475.245 87 474.312 87H468.688C467.755 87 467 86.1609 467 85.125V78.875C467 77.8391 467.755 77 468.688 77H474.312C475.245 77 476 77.8391 476 78.875V85.125ZM498.5 100.125C498.5 101.161 497.745 102 496.812 102H491.188C490.255 102 489.5 101.161 489.5 100.125V93.875C489.5 92.8391 490.255 92 491.188 92H496.812C497.745 92 498.5 92.8391 498.5 93.875V100.125ZM498.5 85.125C498.5 86.1609 497.745 87 496.812 87H491.188C490.255 87 489.5 86.1609 489.5 85.125V78.875C489.5 77.8391 490.255 77 491.188 77H496.812C497.745 77 498.5 77.8391 498.5 78.875V85.125ZM498.5 70.125C498.5 71.1609 497.745 72 496.812 72H491.188C490.255 72 489.5 71.1609 489.5 70.125V63.875C489.5 62.8391 490.255 62 491.188 62H496.812C497.745 62 498.5 62.8391 498.5 63.875V70.125ZM521 115.125C521 116.161 520.245 117 519.312 117H513.688C512.755 117 512 116.161 512 115.125V108.875C512 107.839 512.755 107 513.688 107H519.312C520.245 107 521 107.839 521 108.875V115.125ZM521 100.125C521 101.161 520.245 102 519.312 102H513.688C512.755 102 512 101.161 512 100.125V93.875C512 92.8391 512.755 92 513.688 92H519.312C520.245 92 521 92.8391 521 93.875V100.125Z" fill="white" fill-opacity="0.1"/>
<path d="M212.8 71.3333H196V58.3333C196 57.1841 195.558 56.0819 194.77 55.2692C193.982 54.4565 192.914 54 191.8 54H158.2C157.086 54 156.018 54.4565 155.23 55.2692C154.442 56.0819 154 57.1841 154 58.3333V88.6667H137.2C136.086 88.6667 135.018 89.1232 134.23 89.9359C133.442 90.7485 133 91.8507 133 93V127.667C133 128.816 133.442 129.918 134.23 130.731C135.018 131.543 136.086 132 137.2 132H212.8C213.914 132 214.982 131.543 215.77 130.731C216.558 129.918 217 128.816 217 127.667V75.6667C217 74.5174 216.558 73.4152 215.77 72.6025C214.982 71.7899 213.914 71.3333 212.8 71.3333ZM149.8 123.333H141.4V114.667H149.8V123.333ZM149.8 106H141.4V97.3333H149.8V106ZM170.8 123.333H162.4V114.667H170.8V123.333ZM170.8 106H162.4V97.3333H170.8V106ZM170.8 88.6667H162.4V80H170.8V88.6667ZM170.8 71.3333H162.4V62.6667H170.8V71.3333ZM187.6 123.333H179.2V114.667H187.6V123.333ZM187.6 106H179.2V97.3333H187.6V106ZM187.6 88.6667H179.2V80H187.6V88.6667ZM187.6 71.3333H179.2V62.6667H187.6V71.3333ZM208.6 123.333H200.2V114.667H208.6V123.333ZM208.6 106H200.2V97.3333H208.6V106ZM208.6 88.6667H200.2V80H208.6V88.6667Z" fill="white" fill-opacity="0.1"/>
</svg>
