<svg width="1590" height="172" viewBox="0 0 1590 172" fill="none" xmlns="http://www.w3.org/2000/svg">
<path d="M1363.62 81H1344.5V54.75C1344.5 52.6781 1342.99 51 1341.12 51H1320.88C1319.01 51 1317.5 52.6781 1317.5 54.75V66H1308.5V53.5C1308.5 52.1187 1307.49 51 1306.25 51H1304C1302.76 51 1301.75 52.1187 1301.75 53.5V66H1292.75V53.5C1292.75 52.1187 1291.74 51 1290.5 51H1288.25C1287.01 51 1286 52.1187 1286 53.5V66H1280.38C1278.51 66 1277 67.6781 1277 69.75V126C1277 128.761 1279.02 131 1281.5 131H1362.5C1364.98 131 1367 128.761 1367 126V84.75C1367 82.6781 1365.49 81 1363.62 81ZM1295 114.125C1295 115.161 1294.24 116 1293.31 116H1287.69C1286.76 116 1286 115.161 1286 114.125V107.875C1286 106.839 1286.76 106 1287.69 106H1293.31C1294.24 106 1295 106.839 1295 107.875V114.125ZM1295 99.125C1295 100.161 1294.24 101 1293.31 101H1287.69C1286.76 101 1286 100.161 1286 99.125V92.875C1286 91.8391 1286.76 91 1287.69 91H1293.31C1294.24 91 1295 91.8391 1295 92.875V99.125ZM1295 84.125C1295 85.1609 1294.24 86 1293.31 86H1287.69C1286.76 86 1286 85.1609 1286 84.125V77.875C1286 76.8391 1286.76 76 1287.69 76H1293.31C1294.24 76 1295 76.8391 1295 77.875V84.125ZM1313 114.125C1313 115.161 1312.24 116 1311.31 116H1305.69C1304.76 116 1304 115.161 1304 114.125V107.875C1304 106.839 1304.76 106 1305.69 106H1311.31C1312.24 106 1313 106.839 1313 107.875V114.125ZM1313 99.125C1313 100.161 1312.24 101 1311.31 101H1305.69C1304.76 101 1304 100.161 1304 99.125V92.875C1304 91.8391 1304.76 91 1305.69 91H1311.31C1312.24 91 1313 91.8391 1313 92.875V99.125ZM1313 84.125C1313 85.1609 1312.24 86 1311.31 86H1305.69C1304.76 86 1304 85.1609 1304 84.125V77.875C1304 76.8391 1304.76 76 1305.69 76H1311.31C1312.24 76 1313 76.8391 1313 77.875V84.125ZM1335.5 99.125C1335.5 100.161 1334.74 101 1333.81 101H1328.19C1327.26 101 1326.5 100.161 1326.5 99.125V92.875C1326.5 91.8391 1327.26 91 1328.19 91H1333.81C1334.74 91 1335.5 91.8391 1335.5 92.875V99.125ZM1335.5 84.125C1335.5 85.1609 1334.74 86 1333.81 86H1328.19C1327.26 86 1326.5 85.1609 1326.5 84.125V77.875C1326.5 76.8391 1327.26 76 1328.19 76H1333.81C1334.74 76 1335.5 76.8391 1335.5 77.875V84.125ZM1335.5 69.125C1335.5 70.1609 1334.74 71 1333.81 71H1328.19C1327.26 71 1326.5 70.1609 1326.5 69.125V62.875C1326.5 61.8391 1327.26 61 1328.19 61H1333.81C1334.74 61 1335.5 61.8391 1335.5 62.875V69.125ZM1358 114.125C1358 115.161 1357.24 116 1356.31 116H1350.69C1349.76 116 1349 115.161 1349 114.125V107.875C1349 106.839 1349.76 106 1350.69 106H1356.31C1357.24 106 1358 106.839 1358 107.875V114.125ZM1358 99.125C1358 100.161 1357.24 101 1356.31 101H1350.69C1349.76 101 1349 100.161 1349 99.125V92.875C1349 91.8391 1349.76 91 1350.69 91H1356.31C1357.24 91 1358 91.8391 1358 92.875V99.125Z" fill="url(#paint0_linear)" fill-opacity="0.5"/>
<path d="M1188.84 132H1064.16C1063.03 132 1062.06 131.592 1061.23 130.775C1060.41 129.959 1060 128.992 1060 127.875V37.125C1060 36.0078 1060.41 35.041 1061.23 34.2246C1062.06 33.4082 1063.03 33 1064.16 33H1093.25V4.125C1093.25 3.00781 1093.66 2.04102 1094.48 1.22461C1095.31 0.408203 1096.28 0 1097.41 0H1122.34C1123.47 0 1124.44 0.408203 1125.27 1.22461C1126.09 2.04102 1126.5 3.00781 1126.5 4.125V41.25H1134.81V28.875C1134.81 27.7578 1135.22 26.791 1136.05 25.9746C1136.87 25.1582 1137.84 24.75 1138.97 24.75H1143.12C1143.12 22.0859 1143.9 19.7012 1145.46 17.5957C1147.02 15.4902 1149.06 14.0078 1151.57 13.1484C1151.74 9.36719 1152.22 6.23047 1153 3.73828C1153.78 1.24609 1154.64 0 1155.59 0C1156.55 0 1157.41 1.24609 1158.19 3.73828C1158.97 6.23047 1159.45 9.36719 1159.62 13.1484C1162.13 14.0078 1164.17 15.4902 1165.72 17.5957C1167.28 19.7012 1168.06 22.0859 1168.06 24.75H1172.22C1173.34 24.75 1174.32 25.1582 1175.14 25.9746C1175.96 26.791 1176.38 27.7578 1176.38 28.875V66H1188.84C1189.97 66 1190.94 66.4082 1191.77 67.2246C1192.59 68.041 1193 69.0078 1193 70.125V127.875C1193 128.992 1192.59 129.959 1191.77 130.775C1190.94 131.592 1189.97 132 1188.84 132ZM1076.62 41.25H1068.31V49.5H1076.62V41.25ZM1076.62 57.75H1068.31V66H1076.62V57.75ZM1076.62 90.75H1068.31V99H1076.62V90.75ZM1093.25 41.25H1084.94V49.5H1093.25V41.25ZM1093.25 74.25H1084.94V82.5H1093.25V74.25ZM1101.56 115.5H1109.88V107.25H1101.56V115.5ZM1101.56 99H1109.88V90.75H1101.56V99ZM1109.88 8.25H1101.56V16.5H1109.88V8.25ZM1118.19 24.75H1109.88V33H1118.19V24.75ZM1118.19 41.25H1109.88V49.5H1118.19V41.25ZM1118.19 74.25H1109.88V82.5H1118.19V74.25ZM1134.81 49.5H1126.5V57.75H1134.81V49.5ZM1134.81 66H1126.5V74.25H1134.81V66ZM1134.81 99H1126.5V107.25H1134.81V99ZM1151.44 41.25H1143.12V49.5H1151.44V41.25ZM1151.44 57.75H1143.12V66H1151.44V57.75ZM1151.44 99H1143.12V107.25H1151.44V99ZM1168.06 49.5H1159.75V57.75H1168.06V49.5ZM1168.06 82.5H1159.75V90.75H1168.06V82.5ZM1168.06 107.25H1159.75V115.5H1168.06V107.25ZM1184.69 74.25H1176.38V82.5H1184.69V74.25ZM1184.69 90.75H1176.38V99H1184.69V90.75ZM1184.69 107.25H1176.38V115.5H1184.69V107.25Z" fill="url(#paint1_linear)" fill-opacity="0.5"/>
<path d="M1495.84 132H1371.16C1370.03 132 1369.06 131.592 1368.23 130.775C1367.41 129.959 1367 128.992 1367 127.875V37.125C1367 36.0078 1367.41 35.041 1368.23 34.2246C1369.06 33.4082 1370.03 33 1371.16 33H1400.25V4.125C1400.25 3.00781 1400.66 2.04102 1401.48 1.22461C1402.31 0.408203 1403.28 0 1404.41 0H1429.34C1430.47 0 1431.44 0.408203 1432.27 1.22461C1433.09 2.04102 1433.5 3.00781 1433.5 4.125V41.25H1441.81V28.875C1441.81 27.7578 1442.22 26.791 1443.05 25.9746C1443.87 25.1582 1444.84 24.75 1445.97 24.75H1450.12C1450.12 22.0859 1450.9 19.7012 1452.46 17.5957C1454.02 15.4902 1456.06 14.0078 1458.57 13.1484C1458.74 9.36719 1459.22 6.23047 1460 3.73828C1460.78 1.24609 1461.64 0 1462.59 0C1463.55 0 1464.41 1.24609 1465.19 3.73828C1465.97 6.23047 1466.45 9.36719 1466.62 13.1484C1469.13 14.0078 1471.17 15.4902 1472.72 17.5957C1474.28 19.7012 1475.06 22.0859 1475.06 24.75H1479.22C1480.34 24.75 1481.32 25.1582 1482.14 25.9746C1482.96 26.791 1483.38 27.7578 1483.38 28.875V66H1495.84C1496.97 66 1497.94 66.4082 1498.77 67.2246C1499.59 68.041 1500 69.0078 1500 70.125V127.875C1500 128.992 1499.59 129.959 1498.77 130.775C1497.94 131.592 1496.97 132 1495.84 132ZM1383.62 41.25H1375.31V49.5H1383.62V41.25ZM1383.62 57.75H1375.31V66H1383.62V57.75ZM1383.62 90.75H1375.31V99H1383.62V90.75ZM1400.25 41.25H1391.94V49.5H1400.25V41.25ZM1400.25 74.25H1391.94V82.5H1400.25V74.25ZM1408.56 115.5H1416.88V107.25H1408.56V115.5ZM1408.56 99H1416.88V90.75H1408.56V99ZM1416.88 8.25H1408.56V16.5H1416.88V8.25ZM1425.19 24.75H1416.88V33H1425.19V24.75ZM1425.19 41.25H1416.88V49.5H1425.19V41.25ZM1425.19 74.25H1416.88V82.5H1425.19V74.25ZM1441.81 49.5H1433.5V57.75H1441.81V49.5ZM1441.81 66H1433.5V74.25H1441.81V66ZM1441.81 99H1433.5V107.25H1441.81V99ZM1458.44 41.25H1450.12V49.5H1458.44V41.25ZM1458.44 57.75H1450.12V66H1458.44V57.75ZM1458.44 99H1450.12V107.25H1458.44V99ZM1475.06 49.5H1466.75V57.75H1475.06V49.5ZM1475.06 82.5H1466.75V90.75H1475.06V82.5ZM1475.06 107.25H1466.75V115.5H1475.06V107.25ZM1491.69 74.25H1483.38V82.5H1491.69V74.25ZM1491.69 90.75H1483.38V99H1491.69V90.75ZM1491.69 107.25H1483.38V115.5H1491.69V107.25Z" fill="url(#paint2_linear)" fill-opacity="0.5"/>
<path d="M1586.62 82H1567.5V55.75C1567.5 53.6781 1565.99 52 1564.12 52H1543.88C1542.01 52 1540.5 53.6781 1540.5 55.75V67H1531.5V54.5C1531.5 53.1187 1530.49 52 1529.25 52H1527C1525.76 52 1524.75 53.1187 1524.75 54.5V67H1515.75V54.5C1515.75 53.1187 1514.74 52 1513.5 52H1511.25C1510.01 52 1509 53.1187 1509 54.5V67H1503.38C1501.51 67 1500 68.6781 1500 70.75V127C1500 129.761 1502.02 132 1504.5 132H1585.5C1587.98 132 1590 129.761 1590 127V85.75C1590 83.6781 1588.49 82 1586.62 82ZM1518 115.125C1518 116.161 1517.24 117 1516.31 117H1510.69C1509.76 117 1509 116.161 1509 115.125V108.875C1509 107.839 1509.76 107 1510.69 107H1516.31C1517.24 107 1518 107.839 1518 108.875V115.125ZM1518 100.125C1518 101.161 1517.24 102 1516.31 102H1510.69C1509.76 102 1509 101.161 1509 100.125V93.875C1509 92.8391 1509.76 92 1510.69 92H1516.31C1517.24 92 1518 92.8391 1518 93.875V100.125ZM1518 85.125C1518 86.1609 1517.24 87 1516.31 87H1510.69C1509.76 87 1509 86.1609 1509 85.125V78.875C1509 77.8391 1509.76 77 1510.69 77H1516.31C1517.24 77 1518 77.8391 1518 78.875V85.125ZM1536 115.125C1536 116.161 1535.24 117 1534.31 117H1528.69C1527.76 117 1527 116.161 1527 115.125V108.875C1527 107.839 1527.76 107 1528.69 107H1534.31C1535.24 107 1536 107.839 1536 108.875V115.125ZM1536 100.125C1536 101.161 1535.24 102 1534.31 102H1528.69C1527.76 102 1527 101.161 1527 100.125V93.875C1527 92.8391 1527.76 92 1528.69 92H1534.31C1535.24 92 1536 92.8391 1536 93.875V100.125ZM1536 85.125C1536 86.1609 1535.24 87 1534.31 87H1528.69C1527.76 87 1527 86.1609 1527 85.125V78.875C1527 77.8391 1527.76 77 1528.69 77H1534.31C1535.24 77 1536 77.8391 1536 78.875V85.125ZM1558.5 100.125C1558.5 101.161 1557.74 102 1556.81 102H1551.19C1550.26 102 1549.5 101.161 1549.5 100.125V93.875C1549.5 92.8391 1550.26 92 1551.19 92H1556.81C1557.74 92 1558.5 92.8391 1558.5 93.875V100.125ZM1558.5 85.125C1558.5 86.1609 1557.74 87 1556.81 87H1551.19C1550.26 87 1549.5 86.1609 1549.5 85.125V78.875C1549.5 77.8391 1550.26 77 1551.19 77H1556.81C1557.74 77 1558.5 77.8391 1558.5 78.875V85.125ZM1558.5 70.125C1558.5 71.1609 1557.74 72 1556.81 72H1551.19C1550.26 72 1549.5 71.1609 1549.5 70.125V63.875C1549.5 62.8391 1550.26 62 1551.19 62H1556.81C1557.74 62 1558.5 62.8391 1558.5 63.875V70.125ZM1581 115.125C1581 116.161 1580.24 117 1579.31 117H1573.69C1572.76 117 1572 116.161 1572 115.125V108.875C1572 107.839 1572.76 107 1573.69 107H1579.31C1580.24 107 1581 107.839 1581 108.875V115.125ZM1581 100.125C1581 101.161 1580.24 102 1579.31 102H1573.69C1572.76 102 1572 101.161 1572 100.125V93.875C1572 92.8391 1572.76 92 1573.69 92H1579.31C1580.24 92 1581 92.8391 1581 93.875V100.125Z" fill="url(#paint3_linear)" fill-opacity="0.5"/>
<path d="M1272.8 71.3333H1256V58.3333C1256 57.1841 1255.56 56.0819 1254.77 55.2692C1253.98 54.4565 1252.91 54 1251.8 54H1218.2C1217.09 54 1216.02 54.4565 1215.23 55.2692C1214.44 56.0819 1214 57.1841 1214 58.3333V88.6667H1197.2C1196.09 88.6667 1195.02 89.1232 1194.23 89.9359C1193.44 90.7485 1193 91.8507 1193 93V127.667C1193 128.816 1193.44 129.918 1194.23 130.731C1195.02 131.543 1196.09 132 1197.2 132H1272.8C1273.91 132 1274.98 131.543 1275.77 130.731C1276.56 129.918 1277 128.816 1277 127.667V75.6667C1277 74.5174 1276.56 73.4152 1275.77 72.6025C1274.98 71.7899 1273.91 71.3333 1272.8 71.3333ZM1209.8 123.333H1201.4V114.667H1209.8V123.333ZM1209.8 106H1201.4V97.3333H1209.8V106ZM1230.8 123.333H1222.4V114.667H1230.8V123.333ZM1230.8 106H1222.4V97.3333H1230.8V106ZM1230.8 88.6667H1222.4V80H1230.8V88.6667ZM1230.8 71.3333H1222.4V62.6667H1230.8V71.3333ZM1247.6 123.333H1239.2V114.667H1247.6V123.333ZM1247.6 106H1239.2V97.3333H1247.6V106ZM1247.6 88.6667H1239.2V80H1247.6V88.6667ZM1247.6 71.3333H1239.2V62.6667H1247.6V71.3333ZM1268.6 123.333H1260.2V114.667H1268.6V123.333ZM1268.6 106H1260.2V97.3333H1268.6V106ZM1268.6 88.6667H1260.2V80H1268.6V88.6667Z" fill="url(#paint4_linear)" fill-opacity="0.5"/>
<path d="M303.625 81H284.5V54.75C284.5 52.6781 282.99 51 281.125 51H260.875C259.01 51 257.5 52.6781 257.5 54.75V66H248.5V53.5C248.5 52.1187 247.493 51 246.25 51H244C242.757 51 241.75 52.1187 241.75 53.5V66H232.75V53.5C232.75 52.1187 231.743 51 230.5 51H228.25C227.007 51 226 52.1187 226 53.5V66H220.375C218.51 66 217 67.6781 217 69.75V126C217 128.761 219.015 131 221.5 131H302.5C304.985 131 307 128.761 307 126V84.75C307 82.6781 305.488 81 303.625 81ZM235 114.125C235 115.161 234.245 116 233.312 116H227.688C226.755 116 226 115.161 226 114.125V107.875C226 106.839 226.755 106 227.688 106H233.312C234.245 106 235 106.839 235 107.875V114.125ZM235 99.125C235 100.161 234.245 101 233.312 101H227.688C226.755 101 226 100.161 226 99.125V92.875C226 91.8391 226.755 91 227.688 91H233.312C234.245 91 235 91.8391 235 92.875V99.125ZM235 84.125C235 85.1609 234.245 86 233.312 86H227.688C226.755 86 226 85.1609 226 84.125V77.875C226 76.8391 226.755 76 227.688 76H233.312C234.245 76 235 76.8391 235 77.875V84.125ZM253 114.125C253 115.161 252.245 116 251.312 116H245.688C244.755 116 244 115.161 244 114.125V107.875C244 106.839 244.755 106 245.688 106H251.312C252.245 106 253 106.839 253 107.875V114.125ZM253 99.125C253 100.161 252.245 101 251.312 101H245.688C244.755 101 244 100.161 244 99.125V92.875C244 91.8391 244.755 91 245.688 91H251.312C252.245 91 253 91.8391 253 92.875V99.125ZM253 84.125C253 85.1609 252.245 86 251.312 86H245.688C244.755 86 244 85.1609 244 84.125V77.875C244 76.8391 244.755 76 245.688 76H251.312C252.245 76 253 76.8391 253 77.875V84.125ZM275.5 99.125C275.5 100.161 274.745 101 273.812 101H268.188C267.255 101 266.5 100.161 266.5 99.125V92.875C266.5 91.8391 267.255 91 268.188 91H273.812C274.745 91 275.5 91.8391 275.5 92.875V99.125ZM275.5 84.125C275.5 85.1609 274.745 86 273.812 86H268.188C267.255 86 266.5 85.1609 266.5 84.125V77.875C266.5 76.8391 267.255 76 268.188 76H273.812C274.745 76 275.5 76.8391 275.5 77.875V84.125ZM275.5 69.125C275.5 70.1609 274.745 71 273.812 71H268.188C267.255 71 266.5 70.1609 266.5 69.125V62.875C266.5 61.8391 267.255 61 268.188 61H273.812C274.745 61 275.5 61.8391 275.5 62.875V69.125ZM298 114.125C298 115.161 297.245 116 296.312 116H290.688C289.755 116 289 115.161 289 114.125V107.875C289 106.839 289.755 106 290.688 106H296.312C297.245 106 298 106.839 298 107.875V114.125ZM298 99.125C298 100.161 297.245 101 296.312 101H290.688C289.755 101 289 100.161 289 99.125V92.875C289 91.8391 289.755 91 290.688 91H296.312C297.245 91 298 91.8391 298 92.875V99.125Z" fill="url(#paint5_linear)" fill-opacity="0.5"/>
<path d="M128.844 132H4.15625C3.0306 132 2.05648 131.592 1.23389 130.775C0.411296 129.959 0 128.992 0 127.875V37.125C0 36.0078 0.411296 35.041 1.23389 34.2246C2.05648 33.4082 3.0306 33 4.15625 33H33.25V4.125C33.25 3.00781 33.6613 2.04102 34.4839 1.22461C35.3065 0.408203 36.2806 0 37.4062 0H62.3438C63.4694 0 64.4435 0.408203 65.2661 1.22461C66.0887 2.04102 66.5 3.00781 66.5 4.125V41.25H74.8125V28.875C74.8125 27.7578 75.2238 26.791 76.0464 25.9746C76.869 25.1582 77.8431 24.75 78.9688 24.75H83.125C83.125 22.0859 83.9043 19.7012 85.4629 17.5957C87.0215 15.4902 89.0563 14.0078 91.5674 13.1484C91.7406 9.36719 92.2168 6.23047 92.9961 3.73828C93.7754 1.24609 94.6413 0 95.5938 0C96.5462 0 97.4121 1.24609 98.1914 3.73828C98.9707 6.23047 99.4469 9.36719 99.6201 13.1484C102.131 14.0078 104.166 15.4902 105.725 17.5957C107.283 19.7012 108.062 22.0859 108.062 24.75H112.219C113.344 24.75 114.319 25.1582 115.141 25.9746C115.964 26.791 116.375 27.7578 116.375 28.875V66H128.844C129.969 66 130.944 66.4082 131.766 67.2246C132.589 68.041 133 69.0078 133 70.125V127.875C133 128.992 132.589 129.959 131.766 130.775C130.944 131.592 129.969 132 128.844 132ZM16.625 41.25H8.3125V49.5H16.625V41.25ZM16.625 57.75H8.3125V66H16.625V57.75ZM16.625 90.75H8.3125V99H16.625V90.75ZM33.25 41.25H24.9375V49.5H33.25V41.25ZM33.25 74.25H24.9375V82.5H33.25V74.25ZM41.5625 115.5H49.875V107.25H41.5625V115.5ZM41.5625 99H49.875V90.75H41.5625V99ZM49.875 8.25H41.5625V16.5H49.875V8.25ZM58.1875 24.75H49.875V33H58.1875V24.75ZM58.1875 41.25H49.875V49.5H58.1875V41.25ZM58.1875 74.25H49.875V82.5H58.1875V74.25ZM74.8125 49.5H66.5V57.75H74.8125V49.5ZM74.8125 66H66.5V74.25H74.8125V66ZM74.8125 99H66.5V107.25H74.8125V99ZM91.4375 41.25H83.125V49.5H91.4375V41.25ZM91.4375 57.75H83.125V66H91.4375V57.75ZM91.4375 99H83.125V107.25H91.4375V99ZM108.062 49.5H99.75V57.75H108.062V49.5ZM108.062 82.5H99.75V90.75H108.062V82.5ZM108.062 107.25H99.75V115.5H108.062V107.25ZM124.688 74.25H116.375V82.5H124.688V74.25ZM124.688 90.75H116.375V99H124.688V90.75ZM124.688 107.25H116.375V115.5H124.688V107.25Z" fill="url(#paint6_linear)" fill-opacity="0.5"/>
<path d="M435.844 132H311.156C310.031 132 309.056 131.592 308.234 130.775C307.411 129.959 307 128.992 307 127.875V37.125C307 36.0078 307.411 35.041 308.234 34.2246C309.056 33.4082 310.031 33 311.156 33H340.25V4.125C340.25 3.00781 340.661 2.04102 341.484 1.22461C342.306 0.408203 343.281 0 344.406 0H369.344C370.469 0 371.444 0.408203 372.266 1.22461C373.089 2.04102 373.5 3.00781 373.5 4.125V41.25H381.812V28.875C381.812 27.7578 382.224 26.791 383.046 25.9746C383.869 25.1582 384.843 24.75 385.969 24.75H390.125C390.125 22.0859 390.904 19.7012 392.463 17.5957C394.021 15.4902 396.056 14.0078 398.567 13.1484C398.741 9.36719 399.217 6.23047 399.996 3.73828C400.775 1.24609 401.641 0 402.594 0C403.546 0 404.412 1.24609 405.191 3.73828C405.971 6.23047 406.447 9.36719 406.62 13.1484C409.131 14.0078 411.166 15.4902 412.725 17.5957C414.283 19.7012 415.062 22.0859 415.062 24.75H419.219C420.344 24.75 421.319 25.1582 422.141 25.9746C422.964 26.791 423.375 27.7578 423.375 28.875V66H435.844C436.969 66 437.944 66.4082 438.766 67.2246C439.589 68.041 440 69.0078 440 70.125V127.875C440 128.992 439.589 129.959 438.766 130.775C437.944 131.592 436.969 132 435.844 132ZM323.625 41.25H315.312V49.5H323.625V41.25ZM323.625 57.75H315.312V66H323.625V57.75ZM323.625 90.75H315.312V99H323.625V90.75ZM340.25 41.25H331.938V49.5H340.25V41.25ZM340.25 74.25H331.938V82.5H340.25V74.25ZM348.562 115.5H356.875V107.25H348.562V115.5ZM348.562 99H356.875V90.75H348.562V99ZM356.875 8.25H348.562V16.5H356.875V8.25ZM365.188 24.75H356.875V33H365.188V24.75ZM365.188 41.25H356.875V49.5H365.188V41.25ZM365.188 74.25H356.875V82.5H365.188V74.25ZM381.812 49.5H373.5V57.75H381.812V49.5ZM381.812 66H373.5V74.25H381.812V66ZM381.812 99H373.5V107.25H381.812V99ZM398.438 41.25H390.125V49.5H398.438V41.25ZM398.438 57.75H390.125V66H398.438V57.75ZM398.438 99H390.125V107.25H398.438V99ZM415.062 49.5H406.75V57.75H415.062V49.5ZM415.062 82.5H406.75V90.75H415.062V82.5ZM415.062 107.25H406.75V115.5H415.062V107.25ZM431.688 74.25H423.375V82.5H431.688V74.25ZM431.688 90.75H423.375V99H431.688V90.75ZM431.688 107.25H423.375V115.5H431.688V107.25Z" fill="url(#paint7_linear)" fill-opacity="0.5"/>
<path d="M526.625 82H507.5V55.75C507.5 53.6781 505.99 52 504.125 52H483.875C482.01 52 480.5 53.6781 480.5 55.75V67H471.5V54.5C471.5 53.1187 470.493 52 469.25 52H467C465.757 52 464.75 53.1187 464.75 54.5V67H455.75V54.5C455.75 53.1187 454.743 52 453.5 52H451.25C450.007 52 449 53.1187 449 54.5V67H443.375C441.51 67 440 68.6781 440 70.75V127C440 129.761 442.015 132 444.5 132H525.5C527.985 132 530 129.761 530 127V85.75C530 83.6781 528.488 82 526.625 82ZM458 115.125C458 116.161 457.245 117 456.312 117H450.688C449.755 117 449 116.161 449 115.125V108.875C449 107.839 449.755 107 450.688 107H456.312C457.245 107 458 107.839 458 108.875V115.125ZM458 100.125C458 101.161 457.245 102 456.312 102H450.688C449.755 102 449 101.161 449 100.125V93.875C449 92.8391 449.755 92 450.688 92H456.312C457.245 92 458 92.8391 458 93.875V100.125ZM458 85.125C458 86.1609 457.245 87 456.312 87H450.688C449.755 87 449 86.1609 449 85.125V78.875C449 77.8391 449.755 77 450.688 77H456.312C457.245 77 458 77.8391 458 78.875V85.125ZM476 115.125C476 116.161 475.245 117 474.312 117H468.688C467.755 117 467 116.161 467 115.125V108.875C467 107.839 467.755 107 468.688 107H474.312C475.245 107 476 107.839 476 108.875V115.125ZM476 100.125C476 101.161 475.245 102 474.312 102H468.688C467.755 102 467 101.161 467 100.125V93.875C467 92.8391 467.755 92 468.688 92H474.312C475.245 92 476 92.8391 476 93.875V100.125ZM476 85.125C476 86.1609 475.245 87 474.312 87H468.688C467.755 87 467 86.1609 467 85.125V78.875C467 77.8391 467.755 77 468.688 77H474.312C475.245 77 476 77.8391 476 78.875V85.125ZM498.5 100.125C498.5 101.161 497.745 102 496.812 102H491.188C490.255 102 489.5 101.161 489.5 100.125V93.875C489.5 92.8391 490.255 92 491.188 92H496.812C497.745 92 498.5 92.8391 498.5 93.875V100.125ZM498.5 85.125C498.5 86.1609 497.745 87 496.812 87H491.188C490.255 87 489.5 86.1609 489.5 85.125V78.875C489.5 77.8391 490.255 77 491.188 77H496.812C497.745 77 498.5 77.8391 498.5 78.875V85.125ZM498.5 70.125C498.5 71.1609 497.745 72 496.812 72H491.188C490.255 72 489.5 71.1609 489.5 70.125V63.875C489.5 62.8391 490.255 62 491.188 62H496.812C497.745 62 498.5 62.8391 498.5 63.875V70.125ZM521 115.125C521 116.161 520.245 117 519.312 117H513.688C512.755 117 512 116.161 512 115.125V108.875C512 107.839 512.755 107 513.688 107H519.312C520.245 107 521 107.839 521 108.875V115.125ZM521 100.125C521 101.161 520.245 102 519.312 102H513.688C512.755 102 512 101.161 512 100.125V93.875C512 92.8391 512.755 92 513.688 92H519.312C520.245 92 521 92.8391 521 93.875V100.125Z" fill="url(#paint8_linear)" fill-opacity="0.5"/>
<path d="M212.8 71.3333H196V58.3333C196 57.1841 195.558 56.0819 194.77 55.2692C193.982 54.4565 192.914 54 191.8 54H158.2C157.086 54 156.018 54.4565 155.23 55.2692C154.442 56.0819 154 57.1841 154 58.3333V88.6667H137.2C136.086 88.6667 135.018 89.1232 134.23 89.9359C133.442 90.7485 133 91.8507 133 93V127.667C133 128.816 133.442 129.918 134.23 130.731C135.018 131.543 136.086 132 137.2 132H212.8C213.914 132 214.982 131.543 215.77 130.731C216.558 129.918 217 128.816 217 127.667V75.6667C217 74.5174 216.558 73.4152 215.77 72.6025C214.982 71.7899 213.914 71.3333 212.8 71.3333ZM149.8 123.333H141.4V114.667H149.8V123.333ZM149.8 106H141.4V97.3333H149.8V106ZM170.8 123.333H162.4V114.667H170.8V123.333ZM170.8 106H162.4V97.3333H170.8V106ZM170.8 88.6667H162.4V80H170.8V88.6667ZM170.8 71.3333H162.4V62.6667H170.8V71.3333ZM187.6 123.333H179.2V114.667H187.6V123.333ZM187.6 106H179.2V97.3333H187.6V106ZM187.6 88.6667H179.2V80H187.6V88.6667ZM187.6 71.3333H179.2V62.6667H187.6V71.3333ZM208.6 123.333H200.2V114.667H208.6V123.333ZM208.6 106H200.2V97.3333H208.6V106ZM208.6 88.6667H200.2V80H208.6V88.6667Z" fill="url(#paint9_linear)" fill-opacity="0.5"/>
<path d="M833.625 81H814.5V54.75C814.5 52.6781 812.99 51 811.125 51H790.875C789.01 51 787.5 52.6781 787.5 54.75V66H778.5V53.5C778.5 52.1187 777.493 51 776.25 51H774C772.757 51 771.75 52.1187 771.75 53.5V66H762.75V53.5C762.75 52.1187 761.743 51 760.5 51H758.25C757.007 51 756 52.1187 756 53.5V66H750.375C748.51 66 747 67.6781 747 69.75V126C747 128.761 749.015 131 751.5 131H832.5C834.985 131 837 128.761 837 126V84.75C837 82.6781 835.488 81 833.625 81ZM765 114.125C765 115.161 764.245 116 763.312 116H757.688C756.755 116 756 115.161 756 114.125V107.875C756 106.839 756.755 106 757.688 106H763.312C764.245 106 765 106.839 765 107.875V114.125ZM765 99.125C765 100.161 764.245 101 763.312 101H757.688C756.755 101 756 100.161 756 99.125V92.875C756 91.8391 756.755 91 757.688 91H763.312C764.245 91 765 91.8391 765 92.875V99.125ZM765 84.125C765 85.1609 764.245 86 763.312 86H757.688C756.755 86 756 85.1609 756 84.125V77.875C756 76.8391 756.755 76 757.688 76H763.312C764.245 76 765 76.8391 765 77.875V84.125ZM783 114.125C783 115.161 782.245 116 781.312 116H775.688C774.755 116 774 115.161 774 114.125V107.875C774 106.839 774.755 106 775.688 106H781.312C782.245 106 783 106.839 783 107.875V114.125ZM783 99.125C783 100.161 782.245 101 781.312 101H775.688C774.755 101 774 100.161 774 99.125V92.875C774 91.8391 774.755 91 775.688 91H781.312C782.245 91 783 91.8391 783 92.875V99.125ZM783 84.125C783 85.1609 782.245 86 781.312 86H775.688C774.755 86 774 85.1609 774 84.125V77.875C774 76.8391 774.755 76 775.688 76H781.312C782.245 76 783 76.8391 783 77.875V84.125ZM805.5 99.125C805.5 100.161 804.745 101 803.812 101H798.188C797.255 101 796.5 100.161 796.5 99.125V92.875C796.5 91.8391 797.255 91 798.188 91H803.812C804.745 91 805.5 91.8391 805.5 92.875V99.125ZM805.5 84.125C805.5 85.1609 804.745 86 803.812 86H798.188C797.255 86 796.5 85.1609 796.5 84.125V77.875C796.5 76.8391 797.255 76 798.188 76H803.812C804.745 76 805.5 76.8391 805.5 77.875V84.125ZM805.5 69.125C805.5 70.1609 804.745 71 803.812 71H798.188C797.255 71 796.5 70.1609 796.5 69.125V62.875C796.5 61.8391 797.255 61 798.188 61H803.812C804.745 61 805.5 61.8391 805.5 62.875V69.125ZM828 114.125C828 115.161 827.245 116 826.312 116H820.688C819.755 116 819 115.161 819 114.125V107.875C819 106.839 819.755 106 820.688 106H826.312C827.245 106 828 106.839 828 107.875V114.125ZM828 99.125C828 100.161 827.245 101 826.312 101H820.688C819.755 101 819 100.161 819 99.125V92.875C819 91.8391 819.755 91 820.688 91H826.312C827.245 91 828 91.8391 828 92.875V99.125Z" fill="url(#paint10_linear)" fill-opacity="0.5"/>
<path d="M658.844 132H534.156C533.031 132 532.056 131.592 531.234 130.775C530.411 129.959 530 128.992 530 127.875V37.125C530 36.0078 530.411 35.041 531.234 34.2246C532.056 33.4082 533.031 33 534.156 33H563.25V4.125C563.25 3.00781 563.661 2.04102 564.484 1.22461C565.306 0.408203 566.281 0 567.406 0H592.344C593.469 0 594.444 0.408203 595.266 1.22461C596.089 2.04102 596.5 3.00781 596.5 4.125V41.25H604.812V28.875C604.812 27.7578 605.224 26.791 606.046 25.9746C606.869 25.1582 607.843 24.75 608.969 24.75H613.125C613.125 22.0859 613.904 19.7012 615.463 17.5957C617.021 15.4902 619.056 14.0078 621.567 13.1484C621.741 9.36719 622.217 6.23047 622.996 3.73828C623.775 1.24609 624.641 0 625.594 0C626.546 0 627.412 1.24609 628.191 3.73828C628.971 6.23047 629.447 9.36719 629.62 13.1484C632.131 14.0078 634.166 15.4902 635.725 17.5957C637.283 19.7012 638.062 22.0859 638.062 24.75H642.219C643.344 24.75 644.319 25.1582 645.141 25.9746C645.964 26.791 646.375 27.7578 646.375 28.875V66H658.844C659.969 66 660.944 66.4082 661.766 67.2246C662.589 68.041 663 69.0078 663 70.125V127.875C663 128.992 662.589 129.959 661.766 130.775C660.944 131.592 659.969 132 658.844 132ZM546.625 41.25H538.312V49.5H546.625V41.25ZM546.625 57.75H538.312V66H546.625V57.75ZM546.625 90.75H538.312V99H546.625V90.75ZM563.25 41.25H554.938V49.5H563.25V41.25ZM563.25 74.25H554.938V82.5H563.25V74.25ZM571.562 115.5H579.875V107.25H571.562V115.5ZM571.562 99H579.875V90.75H571.562V99ZM579.875 8.25H571.562V16.5H579.875V8.25ZM588.188 24.75H579.875V33H588.188V24.75ZM588.188 41.25H579.875V49.5H588.188V41.25ZM588.188 74.25H579.875V82.5H588.188V74.25ZM604.812 49.5H596.5V57.75H604.812V49.5ZM604.812 66H596.5V74.25H604.812V66ZM604.812 99H596.5V107.25H604.812V99ZM621.438 41.25H613.125V49.5H621.438V41.25ZM621.438 57.75H613.125V66H621.438V57.75ZM621.438 99H613.125V107.25H621.438V99ZM638.062 49.5H629.75V57.75H638.062V49.5ZM638.062 82.5H629.75V90.75H638.062V82.5ZM638.062 107.25H629.75V115.5H638.062V107.25ZM654.688 74.25H646.375V82.5H654.688V74.25ZM654.688 90.75H646.375V99H654.688V90.75ZM654.688 107.25H646.375V115.5H654.688V107.25Z" fill="url(#paint11_linear)" fill-opacity="0.5"/>
<path d="M965.844 132H841.156C840.031 132 839.056 131.592 838.234 130.775C837.411 129.959 837 128.992 837 127.875V37.125C837 36.0078 837.411 35.041 838.234 34.2246C839.056 33.4082 840.031 33 841.156 33H870.25V4.125C870.25 3.00781 870.661 2.04102 871.484 1.22461C872.306 0.408203 873.281 0 874.406 0H899.344C900.469 0 901.444 0.408203 902.266 1.22461C903.089 2.04102 903.5 3.00781 903.5 4.125V41.25H911.812V28.875C911.812 27.7578 912.224 26.791 913.046 25.9746C913.869 25.1582 914.843 24.75 915.969 24.75H920.125C920.125 22.0859 920.904 19.7012 922.463 17.5957C924.021 15.4902 926.056 14.0078 928.567 13.1484C928.741 9.36719 929.217 6.23047 929.996 3.73828C930.775 1.24609 931.641 0 932.594 0C933.546 0 934.412 1.24609 935.191 3.73828C935.971 6.23047 936.447 9.36719 936.62 13.1484C939.131 14.0078 941.166 15.4902 942.725 17.5957C944.283 19.7012 945.062 22.0859 945.062 24.75H949.219C950.344 24.75 951.319 25.1582 952.141 25.9746C952.964 26.791 953.375 27.7578 953.375 28.875V66H965.844C966.969 66 967.944 66.4082 968.766 67.2246C969.589 68.041 970 69.0078 970 70.125V127.875C970 128.992 969.589 129.959 968.766 130.775C967.944 131.592 966.969 132 965.844 132ZM853.625 41.25H845.312V49.5H853.625V41.25ZM853.625 57.75H845.312V66H853.625V57.75ZM853.625 90.75H845.312V99H853.625V90.75ZM870.25 41.25H861.938V49.5H870.25V41.25ZM870.25 74.25H861.938V82.5H870.25V74.25ZM878.562 115.5H886.875V107.25H878.562V115.5ZM878.562 99H886.875V90.75H878.562V99ZM886.875 8.25H878.562V16.5H886.875V8.25ZM895.188 24.75H886.875V33H895.188V24.75ZM895.188 41.25H886.875V49.5H895.188V41.25ZM895.188 74.25H886.875V82.5H895.188V74.25ZM911.812 49.5H903.5V57.75H911.812V49.5ZM911.812 66H903.5V74.25H911.812V66ZM911.812 99H903.5V107.25H911.812V99ZM928.438 41.25H920.125V49.5H928.438V41.25ZM928.438 57.75H920.125V66H928.438V57.75ZM928.438 99H920.125V107.25H928.438V99ZM945.062 49.5H936.75V57.75H945.062V49.5ZM945.062 82.5H936.75V90.75H945.062V82.5ZM945.062 107.25H936.75V115.5H945.062V107.25ZM961.688 74.25H953.375V82.5H961.688V74.25ZM961.688 90.75H953.375V99H961.688V90.75ZM961.688 107.25H953.375V115.5H961.688V107.25Z" fill="url(#paint12_linear)" fill-opacity="0.5"/>
<path d="M1056.62 82H1037.5V55.75C1037.5 53.6781 1035.99 52 1034.12 52H1013.88C1012.01 52 1010.5 53.6781 1010.5 55.75V67H1001.5V54.5C1001.5 53.1187 1000.49 52 999.25 52H997C995.757 52 994.75 53.1187 994.75 54.5V67H985.75V54.5C985.75 53.1187 984.743 52 983.5 52H981.25C980.007 52 979 53.1187 979 54.5V67H973.375C971.51 67 970 68.6781 970 70.75V127C970 129.761 972.015 132 974.5 132H1055.5C1057.98 132 1060 129.761 1060 127V85.75C1060 83.6781 1058.49 82 1056.62 82ZM988 115.125C988 116.161 987.245 117 986.312 117H980.688C979.755 117 979 116.161 979 115.125V108.875C979 107.839 979.755 107 980.688 107H986.312C987.245 107 988 107.839 988 108.875V115.125ZM988 100.125C988 101.161 987.245 102 986.312 102H980.688C979.755 102 979 101.161 979 100.125V93.875C979 92.8391 979.755 92 980.688 92H986.312C987.245 92 988 92.8391 988 93.875V100.125ZM988 85.125C988 86.1609 987.245 87 986.312 87H980.688C979.755 87 979 86.1609 979 85.125V78.875C979 77.8391 979.755 77 980.688 77H986.312C987.245 77 988 77.8391 988 78.875V85.125ZM1006 115.125C1006 116.161 1005.24 117 1004.31 117H998.688C997.755 117 997 116.161 997 115.125V108.875C997 107.839 997.755 107 998.688 107H1004.31C1005.24 107 1006 107.839 1006 108.875V115.125ZM1006 100.125C1006 101.161 1005.24 102 1004.31 102H998.688C997.755 102 997 101.161 997 100.125V93.875C997 92.8391 997.755 92 998.688 92H1004.31C1005.24 92 1006 92.8391 1006 93.875V100.125ZM1006 85.125C1006 86.1609 1005.24 87 1004.31 87H998.688C997.755 87 997 86.1609 997 85.125V78.875C997 77.8391 997.755 77 998.688 77H1004.31C1005.24 77 1006 77.8391 1006 78.875V85.125ZM1028.5 100.125C1028.5 101.161 1027.74 102 1026.81 102H1021.19C1020.26 102 1019.5 101.161 1019.5 100.125V93.875C1019.5 92.8391 1020.26 92 1021.19 92H1026.81C1027.74 92 1028.5 92.8391 1028.5 93.875V100.125ZM1028.5 85.125C1028.5 86.1609 1027.74 87 1026.81 87H1021.19C1020.26 87 1019.5 86.1609 1019.5 85.125V78.875C1019.5 77.8391 1020.26 77 1021.19 77H1026.81C1027.74 77 1028.5 77.8391 1028.5 78.875V85.125ZM1028.5 70.125C1028.5 71.1609 1027.74 72 1026.81 72H1021.19C1020.26 72 1019.5 71.1609 1019.5 70.125V63.875C1019.5 62.8391 1020.26 62 1021.19 62H1026.81C1027.74 62 1028.5 62.8391 1028.5 63.875V70.125ZM1051 115.125C1051 116.161 1050.24 117 1049.31 117H1043.69C1042.76 117 1042 116.161 1042 115.125V108.875C1042 107.839 1042.76 107 1043.69 107H1049.31C1050.24 107 1051 107.839 1051 108.875V115.125ZM1051 100.125C1051 101.161 1050.24 102 1049.31 102H1043.69C1042.76 102 1042 101.161 1042 100.125V93.875C1042 92.8391 1042.76 92 1043.69 92H1049.31C1050.24 92 1051 92.8391 1051 93.875V100.125Z" fill="url(#paint13_linear)" fill-opacity="0.5"/>
<path d="M742.8 71.3333H726V58.3333C726 57.1841 725.558 56.0819 724.77 55.2692C723.982 54.4565 722.914 54 721.8 54H688.2C687.086 54 686.018 54.4565 685.23 55.2692C684.442 56.0819 684 57.1841 684 58.3333V88.6667H667.2C666.086 88.6667 665.018 89.1232 664.23 89.9359C663.442 90.7485 663 91.8507 663 93V127.667C663 128.816 663.442 129.918 664.23 130.731C665.018 131.543 666.086 132 667.2 132H742.8C743.914 132 744.982 131.543 745.77 130.731C746.558 129.918 747 128.816 747 127.667V75.6667C747 74.5174 746.558 73.4152 745.77 72.6025C744.982 71.7899 743.914 71.3333 742.8 71.3333ZM679.8 123.333H671.4V114.667H679.8V123.333ZM679.8 106H671.4V97.3333H679.8V106ZM700.8 123.333H692.4V114.667H700.8V123.333ZM700.8 106H692.4V97.3333H700.8V106ZM700.8 88.6667H692.4V80H700.8V88.6667ZM700.8 71.3333H692.4V62.6667H700.8V71.3333ZM717.6 123.333H709.2V114.667H717.6V123.333ZM717.6 106H709.2V97.3333H717.6V106ZM717.6 88.6667H709.2V80H717.6V88.6667ZM717.6 71.3333H709.2V62.6667H717.6V71.3333ZM738.6 123.333H730.2V114.667H738.6V123.333ZM738.6 106H730.2V97.3333H738.6V106ZM738.6 88.6667H730.2V80H738.6V88.6667Z" fill="url(#paint14_linear)" fill-opacity="0.5"/>
<defs>
<linearGradient id="paint0_linear" x1="1322" y1="51" x2="1322" y2="131" gradientUnits="userSpaceOnUse">
<stop stop-color="#B92C7B"/>
<stop offset="1" stop-color="#5F3090"/>
</linearGradient>
<linearGradient id="paint1_linear" x1="1126.5" y1="0" x2="1126.5" y2="132" gradientUnits="userSpaceOnUse">
<stop stop-color="#B92C7B"/>
<stop offset="1" stop-color="#5F3090"/>
</linearGradient>
<linearGradient id="paint2_linear" x1="1433.5" y1="0" x2="1433.5" y2="132" gradientUnits="userSpaceOnUse">
<stop stop-color="#B92C7B"/>
<stop offset="1" stop-color="#5F3090"/>
</linearGradient>
<linearGradient id="paint3_linear" x1="1545" y1="52" x2="1545" y2="132" gradientUnits="userSpaceOnUse">
<stop stop-color="#B92C7B"/>
<stop offset="1" stop-color="#5F3090"/>
</linearGradient>
<linearGradient id="paint4_linear" x1="1235" y1="54" x2="1235" y2="132" gradientUnits="userSpaceOnUse">
<stop stop-color="#B92C7B"/>
<stop offset="1" stop-color="#5F3090"/>
</linearGradient>
<linearGradient id="paint5_linear" x1="262" y1="51" x2="262" y2="131" gradientUnits="userSpaceOnUse">
<stop stop-color="#B92C7B"/>
<stop offset="1" stop-color="#5F3090"/>
</linearGradient>
<linearGradient id="paint6_linear" x1="66.5" y1="0" x2="66.5" y2="132" gradientUnits="userSpaceOnUse">
<stop stop-color="#B92C7B"/>
<stop offset="1" stop-color="#5F3090"/>
</linearGradient>
<linearGradient id="paint7_linear" x1="373.5" y1="0" x2="373.5" y2="132" gradientUnits="userSpaceOnUse">
<stop stop-color="#B92C7B"/>
<stop offset="1" stop-color="#5F3090"/>
</linearGradient>
<linearGradient id="paint8_linear" x1="485" y1="52" x2="485" y2="132" gradientUnits="userSpaceOnUse">
<stop stop-color="#B92C7B"/>
<stop offset="1" stop-color="#5F3090"/>
</linearGradient>
<linearGradient id="paint9_linear" x1="175" y1="54" x2="175" y2="132" gradientUnits="userSpaceOnUse">
<stop stop-color="#B92C7B"/>
<stop offset="1" stop-color="#5F3090"/>
</linearGradient>
<linearGradient id="paint10_linear" x1="792" y1="51" x2="792" y2="131" gradientUnits="userSpaceOnUse">
<stop stop-color="#B92C7B"/>
<stop offset="1" stop-color="#5F3090"/>
</linearGradient>
<linearGradient id="paint11_linear" x1="596.5" y1="0" x2="596.5" y2="132" gradientUnits="userSpaceOnUse">
<stop stop-color="#B92C7B"/>
<stop offset="1" stop-color="#5F3090"/>
</linearGradient>
<linearGradient id="paint12_linear" x1="903.5" y1="0" x2="903.5" y2="132" gradientUnits="userSpaceOnUse">
<stop stop-color="#B92C7B"/>
<stop offset="1" stop-color="#5F3090"/>
</linearGradient>
<linearGradient id="paint13_linear" x1="1015" y1="52" x2="1015" y2="132" gradientUnits="userSpaceOnUse">
<stop stop-color="#B92C7B"/>
<stop offset="1" stop-color="#5F3090"/>
</linearGradient>
<linearGradient id="paint14_linear" x1="705" y1="54" x2="705" y2="132" gradientUnits="userSpaceOnUse">
<stop stop-color="#B92C7B"/>
<stop offset="1" stop-color="#5F3090"/>
</linearGradient>
</defs>
</svg>
