<svg width="100" height="100" viewBox="0 0 100 100" fill="none" xmlns="http://www.w3.org/2000/svg">
<path d="M60.7812 66.6458L66.6729 60.7563L91.7125 85.7958L85.8208 91.6854L60.7812 66.6458Z" fill="#616161"/>
<path d="M41.6666 75C60.0761 75 74.9999 60.0762 74.9999 41.6667C74.9999 23.2572 60.0761 8.33334 41.6666 8.33334C23.2571 8.33334 8.33325 23.2572 8.33325 41.6667C8.33325 60.0762 23.2571 75 41.6666 75Z" fill="#616161"/>
<path d="M67.604 73.625L73.4936 67.7333L91.6103 85.85L85.7186 91.7417L67.604 73.625Z" fill="#37474F"/>
<path d="M41.6666 68.75C56.6243 68.75 68.7499 56.6244 68.7499 41.6667C68.7499 26.709 56.6243 14.5833 41.6666 14.5833C26.7089 14.5833 14.5833 26.709 14.5833 41.6667C14.5833 56.6244 26.7089 68.75 41.6666 68.75Z" fill="#64B5F6"/>
<path d="M56.0417 29.5833C52.5001 25.4167 47.2917 22.9167 41.6667 22.9167C36.0417 22.9167 30.8334 25.4167 27.2917 29.5833C26.4584 30.4167 26.6667 31.875 27.5001 32.5C28.3334 33.3333 29.7917 33.125 30.4167 32.2917C33.3334 28.9583 37.2917 27.0833 41.6667 27.0833C46.0417 27.0833 50.0001 28.9583 52.9167 32.2917C53.3334 32.7083 53.9584 33.125 54.5834 33.125C55.0001 33.125 55.6251 32.9167 55.8334 32.7083C56.6667 31.875 56.6667 30.4167 56.0417 29.5833V29.5833Z" fill="#BBDEFB"/>
</svg>
